<svg width="281" height="48" viewBox="0 0 281 48" fill="none" xmlns="http://www.w3.org/2000/svg">
<path d="M8.99148 39L0.78125 9.90909H6.44886L11.6903 31.2869H11.9602L17.5568 9.90909H22.7131L28.3239 31.3011H28.5795L33.821 9.90909H39.4886L31.2784 39H26.0795L20.2557 18.5881H20.0284L14.1903 39H8.99148ZM50.348 39.4261C48.1605 39.4261 46.2713 38.9716 44.6804 38.0625C43.099 37.1439 41.8821 35.8466 41.0298 34.1705C40.1776 32.4848 39.7514 30.5009 39.7514 28.2188C39.7514 25.9744 40.1776 24.0047 41.0298 22.3097C41.8916 20.6051 43.0942 19.2794 44.6378 18.3324C46.1813 17.3759 47.9948 16.8977 50.0781 16.8977C51.4228 16.8977 52.6918 17.1155 53.8849 17.5511C55.0876 17.9773 56.1482 18.6402 57.0668 19.5398C57.9948 20.4394 58.724 21.5852 59.2543 22.9773C59.7846 24.3598 60.0497 26.0076 60.0497 27.9205V29.4972H42.1662V26.0312H55.1207C55.1113 25.0464 54.8982 24.1705 54.4815 23.4034C54.0649 22.6269 53.4825 22.0161 52.7344 21.571C51.9957 21.1259 51.134 20.9034 50.1491 20.9034C49.098 20.9034 48.1747 21.1591 47.3793 21.6705C46.5838 22.1723 45.9635 22.8352 45.5185 23.6591C45.0829 24.4735 44.8603 25.3684 44.8509 26.3438V29.3693C44.8509 30.6383 45.0829 31.7273 45.5469 32.6364C46.0109 33.536 46.6596 34.2273 47.4929 34.7102C48.3262 35.1837 49.3016 35.4205 50.419 35.4205C51.1671 35.4205 51.8442 35.3163 52.4503 35.108C53.0563 34.8902 53.5819 34.5729 54.027 34.1562C54.4721 33.7396 54.8082 33.2235 55.0355 32.608L59.8366 33.1477C59.5336 34.4167 58.956 35.5246 58.1037 36.4716C57.2609 37.4091 56.1813 38.1383 54.8651 38.6591C53.5488 39.1705 52.0431 39.4261 50.348 39.4261ZM69.5419 9.90909V39H64.3999V9.90909H69.5419ZM84.3466 39.4261C82.1686 39.4261 80.2983 38.9479 78.7358 37.9915C77.1828 37.035 75.9848 35.714 75.142 34.0284C74.3087 32.3333 73.892 30.3826 73.892 28.1761C73.892 25.9602 74.3182 24.0047 75.1705 22.3097C76.0227 20.6051 77.2254 19.2794 78.7784 18.3324C80.3409 17.3759 82.1875 16.8977 84.3182 16.8977C86.089 16.8977 87.6563 17.2244 89.0199 17.8778C90.393 18.5218 91.4867 19.4356 92.3011 20.6193C93.1155 21.7936 93.5795 23.1667 93.6932 24.7386H88.7784C88.5795 23.6875 88.1061 22.8116 87.358 22.1108C86.6193 21.4006 85.6297 21.0455 84.3892 21.0455C83.3381 21.0455 82.4148 21.3295 81.6193 21.8977C80.8239 22.4564 80.2036 23.2614 79.7585 24.3125C79.3229 25.3636 79.1051 26.6231 79.1051 28.0909C79.1051 29.5777 79.3229 30.8561 79.7585 31.9261C80.1941 32.9867 80.8049 33.8059 81.5909 34.3835C82.3864 34.9517 83.3191 35.2358 84.3892 35.2358C85.1468 35.2358 85.8239 35.0937 86.4205 34.8097C87.0265 34.5161 87.5331 34.0947 87.9403 33.5455C88.3475 32.9962 88.6269 32.3286 88.7784 31.5426H93.6932C93.5701 33.0862 93.1155 34.4545 92.3295 35.6477C91.5436 36.8314 90.4735 37.7595 89.1193 38.4318C87.7652 39.0947 86.1742 39.4261 84.3466 39.4261ZM107.433 39.4261C105.302 39.4261 103.455 38.9574 101.893 38.0199C100.33 37.0824 99.1181 35.7708 98.2564 34.0852C97.4041 32.3996 96.978 30.4299 96.978 28.1761C96.978 25.9223 97.4041 23.9479 98.2564 22.2528C99.1181 20.5578 100.33 19.2415 101.893 18.304C103.455 17.3665 105.302 16.8977 107.433 16.8977C109.563 16.8977 111.41 17.3665 112.972 18.304C114.535 19.2415 115.742 20.5578 116.594 22.2528C117.456 23.9479 117.887 25.9223 117.887 28.1761C117.887 30.4299 117.456 32.3996 116.594 34.0852C115.742 35.7708 114.535 37.0824 112.972 38.0199C111.41 38.9574 109.563 39.4261 107.433 39.4261ZM107.461 35.3068C108.616 35.3068 109.582 34.9896 110.359 34.3551C111.135 33.7112 111.713 32.8494 112.092 31.7699C112.48 30.6903 112.674 29.4877 112.674 28.1619C112.674 26.8267 112.48 25.6193 112.092 24.5398C111.713 23.4508 111.135 22.5843 110.359 21.9403C109.582 21.2964 108.616 20.9744 107.461 20.9744C106.277 20.9744 105.292 21.2964 104.506 21.9403C103.73 22.5843 103.147 23.4508 102.759 24.5398C102.38 25.6193 102.191 26.8267 102.191 28.1619C102.191 29.4877 102.38 30.6903 102.759 31.7699C103.147 32.8494 103.73 33.7112 104.506 34.3551C105.292 34.9896 106.277 35.3068 107.461 35.3068ZM122.251 39V17.1818H127.166V20.8892H127.422C127.876 19.6392 128.629 18.6638 129.68 17.9631C130.732 17.2528 131.986 16.8977 133.445 16.8977C134.922 16.8977 136.167 17.2576 137.18 17.9773C138.203 18.6875 138.923 19.6581 139.339 20.8892H139.567C140.05 19.6771 140.864 18.7112 142.01 17.9915C143.165 17.2623 144.534 16.8977 146.115 16.8977C148.123 16.8977 149.761 17.5322 151.03 18.8011C152.299 20.0701 152.933 21.9214 152.933 24.3551V39H147.777V25.1506C147.777 23.7964 147.417 22.8068 146.697 22.1818C145.978 21.5473 145.097 21.2301 144.055 21.2301C142.815 21.2301 141.844 21.6184 141.143 22.3949C140.452 23.1619 140.107 24.161 140.107 25.392V39H135.064V24.9375C135.064 23.8106 134.723 22.911 134.041 22.2386C133.369 21.5663 132.488 21.2301 131.399 21.2301C130.661 21.2301 129.988 21.4195 129.382 21.7983C128.776 22.1676 128.293 22.6932 127.933 23.375C127.573 24.0473 127.393 24.8333 127.393 25.733V39H122.251ZM167.809 39.4261C165.621 39.4261 163.732 38.9716 162.141 38.0625C160.56 37.1439 159.343 35.8466 158.491 34.1705C157.638 32.4848 157.212 30.5009 157.212 28.2188C157.212 25.9744 157.638 24.0047 158.491 22.3097C159.353 20.6051 160.555 19.2794 162.099 18.3324C163.642 17.3759 165.456 16.8977 167.539 16.8977C168.884 16.8977 170.153 17.1155 171.346 17.5511C172.549 17.9773 173.609 18.6402 174.528 19.5398C175.456 20.4394 176.185 21.5852 176.715 22.9773C177.246 24.3598 177.511 26.0076 177.511 27.9205V29.4972H159.627V26.0312H172.582C172.572 25.0464 172.359 24.1705 171.942 23.4034C171.526 22.6269 170.943 22.0161 170.195 21.571C169.457 21.1259 168.595 20.9034 167.61 20.9034C166.559 20.9034 165.636 21.1591 164.84 21.6705C164.045 22.1723 163.424 22.8352 162.979 23.6591C162.544 24.4735 162.321 25.3684 162.312 26.3438V29.3693C162.312 30.6383 162.544 31.7273 163.008 32.6364C163.472 33.536 164.121 34.2273 164.954 34.7102C165.787 35.1837 166.763 35.4205 167.88 35.4205C168.628 35.4205 169.305 35.3163 169.911 35.108C170.517 34.8902 171.043 34.5729 171.488 34.1562C171.933 33.7396 172.269 33.2235 172.496 32.608L177.298 33.1477C176.995 34.4167 176.417 35.5246 175.565 36.4716C174.722 37.4091 173.642 38.1383 172.326 38.6591C171.01 39.1705 169.504 39.4261 167.809 39.4261ZM202.678 17.1818V21.1591H190.135V17.1818H202.678ZM193.232 11.9545H198.374V32.4375C198.374 33.1288 198.478 33.6591 198.686 34.0284C198.904 34.3883 199.188 34.6345 199.538 34.767C199.889 34.8996 200.277 34.9659 200.703 34.9659C201.025 34.9659 201.319 34.9422 201.584 34.8949C201.858 34.8475 202.067 34.8049 202.209 34.767L203.075 38.7869C202.801 38.8816 202.408 38.9858 201.896 39.0994C201.394 39.2131 200.779 39.2794 200.05 39.2983C198.762 39.3362 197.602 39.142 196.57 38.7159C195.537 38.2803 194.718 37.608 194.112 36.6989C193.516 35.7898 193.222 34.6534 193.232 33.2898V11.9545ZM216.261 39.4261C214.13 39.4261 212.283 38.9574 210.721 38.0199C209.158 37.0824 207.946 35.7708 207.085 34.0852C206.232 32.3996 205.806 30.4299 205.806 28.1761C205.806 25.9223 206.232 23.9479 207.085 22.2528C207.946 20.5578 209.158 19.2415 210.721 18.304C212.283 17.3665 214.13 16.8977 216.261 16.8977C218.391 16.8977 220.238 17.3665 221.8 18.304C223.363 19.2415 224.57 20.5578 225.423 22.2528C226.284 23.9479 226.715 25.9223 226.715 28.1761C226.715 30.4299 226.284 32.3996 225.423 34.0852C224.57 35.7708 223.363 37.0824 221.8 38.0199C220.238 38.9574 218.391 39.4261 216.261 39.4261ZM216.289 35.3068C217.444 35.3068 218.41 34.9896 219.187 34.3551C219.963 33.7112 220.541 32.8494 220.92 31.7699C221.308 30.6903 221.502 29.4877 221.502 28.1619C221.502 26.8267 221.308 25.6193 220.92 24.5398C220.541 23.4508 219.963 22.5843 219.187 21.9403C218.41 21.2964 217.444 20.9744 216.289 20.9744C215.105 20.9744 214.121 21.2964 213.335 21.9403C212.558 22.5843 211.976 23.4508 211.587 24.5398C211.209 25.6193 211.019 26.8267 211.019 28.1619C211.019 29.4877 211.209 30.6903 211.587 31.7699C211.976 32.8494 212.558 33.7112 213.335 34.3551C214.121 34.9896 215.105 35.3068 216.289 35.3068Z" fill="white"/>
<path d="M245 41.52H281V5.52H245V41.52Z" fill="black"/>
</svg>
